# xmcd
#
# Track frame offsets:
# 150
# 16287
# 53390
# 57367
#
# Disc length: 807 seconds
#
#
# Revision: 0
# Processed by: cddbd v1.5.2PL0 Copyright (c) Steve Scherf et al.
# Submitted via: FreeRIP 2.40 
#
DISCID=26032504
DTITLE=S Club 7 - Two In A Million [CD Single) 
DYEAR=1999
DGENRE=Pop
TTITLE0=Two In A Million (Single Version)
TTITLE1=Two In A Million (Mark Pinchiotti Club Mix)
TTITLE2=S Club Party (Snippet)
TTITLE3=You're My Number One (Snippet)
EXTD=
EXTT0=
EXTT1=
EXTT2=
EXTT3=
PLAYORDER=
